<?xml version="1.0" encoding="UTF-8" standalone="no"?>
<!-- Generator: Adobe Illustrator 16.0.0, SVG Export Plug-In . SVG Version: 6.00 Build 0)  -->

<svg
   xmlns:dc="http://purl.org/dc/elements/1.1/"
   xmlns:cc="http://creativecommons.org/ns#"
   xmlns:rdf="http://www.w3.org/1999/02/22-rdf-syntax-ns#"
   xmlns:svg="http://www.w3.org/2000/svg"
   xmlns="http://www.w3.org/2000/svg"
   xmlns:sodipodi="http://sodipodi.sourceforge.net/DTD/sodipodi-0.dtd"
   xmlns:inkscape="http://www.inkscape.org/namespaces/inkscape"
   version="1.1"
   id="Layer_1"
   x="0px"
   y="0px"
   width="500"
   height="500"
   viewBox="0 0 500 500"
   enable-background="new 0 0 480 480"
   xml:space="preserve"
   inkscape:version="0.91 r13725"
   sodipodi:docname="555.svg"><metadata
     id="metadata136"><rdf:RDF><cc:Work
         rdf:about=""><dc:format>image/svg+xml</dc:format><dc:type
           rdf:resource="http://purl.org/dc/dcmitype/StillImage" /><dc:title></dc:title></cc:Work></rdf:RDF></metadata><defs
     id="defs134" /><sodipodi:namedview
     pagecolor="#ffffff"
     bordercolor="#666666"
     borderopacity="1"
     objecttolerance="10"
     gridtolerance="10"
     guidetolerance="10"
     inkscape:pageopacity="0"
     inkscape:pageshadow="2"
     inkscape:window-width="2560"
     inkscape:window-height="1413"
     id="namedview132"
     showgrid="false"
     inkscape:zoom="0.49166667"
     inkscape:cx="-434.23729"
     inkscape:cy="240"
     inkscape:window-x="0"
     inkscape:window-y="27"
     inkscape:window-maximized="0"
     inkscape:current-layer="Layer_1" /><rect
     x="23.38427"
     y="20.337206"
     width="87.087601"
     height="87.087601"
     id="rect43"
     style="fill:#000000" /><rect
     x="145.11337"
     y="20.338326"
     width="87.08873"
     height="87.08873"
     id="rect45"
     style="fill:#000000" /><rect
     x="23.38427"
     y="144.35201"
     width="87.087601"
     height="87.086487"
     id="rect47"
     style="fill:#000000" /><rect
     x="145.11337"
     y="144.35313"
     width="87.08873"
     height="87.087601"
     id="rect49"
     style="fill:#000000" /><rect
     x="267.2374"
     y="20.712004"
     width="87.087601"
     height="87.087601"
     id="rect51"
     style="fill:#000000" /><rect
     x="388.96649"
     y="20.713123"
     stroke-miterlimit="10"
     width="87.089844"
     height="87.08873"
     id="rect53"
     style="fill:#000000" /><rect
     x="267.2374"
     y="144.72682"
     width="87.087601"
     height="87.086487"
     id="rect55"
     style="fill:#000000" /><rect
     x="388.96649"
     y="144.72792"
     width="87.089844"
     height="87.087601"
     id="rect57"
     style="fill:#000000" /><rect
     x="23.38427"
     y="268.74164"
     width="87.087601"
     height="87.089844"
     id="rect59"
     style="fill:#000000" /><rect
     x="145.11337"
     y="268.74164"
     width="87.08873"
     height="87.089844"
     id="rect61"
     style="fill:#000000" /><rect
     x="23.38427"
     y="392.75644"
     width="87.087601"
     height="87.087601"
     id="rect63"
     style="fill:#000000" /><rect
     x="145.11337"
     y="392.7587"
     width="87.08873"
     height="87.087601"
     id="rect65"
     style="fill:#000000" /><rect
     x="267.2374"
     y="268.74164"
     width="87.087601"
     height="87.087601"
     id="rect67"
     style="fill:#000000" /><rect
     x="388.96649"
     y="268.74164"
     width="87.089844"
     height="87.089844"
     id="rect69"
     style="fill:#000000" /><rect
     x="267.2374"
     y="392.75644"
     width="87.087601"
     height="87.087601"
     id="rect71"
     style="fill:#000000" /><rect
     x="388.96649"
     y="392.7587"
     width="87.089844"
     height="87.087601"
     id="rect73"
     style="fill:#000000" />
	 
	 
	 <path fill-rule="evenodd" clip-rule="evenodd" fill="#FFFFFF" stroke="#000000" stroke-width="5" d="M298.473,332.997c0-2.802,0-5.242,0-8.212
	c-14.722,0-29.174,0.015-43.626-0.003c-19.157-0.023-38.316,0.072-57.472-0.166c-10.302-0.129-18.292-7.216-20.328-17.286
	c-1.853-9.163,3.034-19.079,12.012-22.986c3.381-1.472,7.402-2.037,11.135-2.051c40.813-0.139,81.629,0.009,122.443-0.161
	c9.123-0.038,15.375,4.223,21.629,10.393c25.26,24.919,50.955,49.397,76.488,74.041c3.596,3.471,6.904,7.313,10.838,10.345
	c6.215,4.787,8.258,10.58,8.043,18.449c-0.553,20.143-0.186,40.312-0.184,60.47c0,2.427,0,4.854,0,8.481
	c-9.523-9.161-17.688-17.688-26.564-25.398c-13.682-11.885-27.795-23.277-41.836-34.744c-8.523-6.962-18.785-9.397-29.422-9.31
	c-23.133,0.192-46.261,1.237-69.394,1.434c-28.321,0.242-56.652-0.366-84.968,0.079c-12.632,0.199-23.001-4.502-31.481-12.761
	c-29.835-29.058-59.207-58.59-88.763-87.933c-6.604-6.557-8.228-14.462-5.22-22.947c2.912-8.216,9.268-12.885,18.003-13.75
	c6.879-0.682,12.596,2,17.604,6.694c19.688,18.456,39.46,36.825,59.202,55.224c3.777,3.521,7.468,7.144,11.396,10.486
	c1.268,1.08,3.166,2.005,4.778,2.009c41.318,0.085,82.636,0.04,123.953,0.002C297.211,333.396,297.681,333.186,298.473,332.997z"/>
	 
	 
	 
	 
	 
	 </svg>