<?xml version="1.0" encoding="UTF-8" standalone="no"?>
<!-- Generator: Adobe Illustrator 16.0.0, SVG Export Plug-In . SVG Version: 6.00 Build 0)  -->

<svg
   xmlns:dc="http://purl.org/dc/elements/1.1/"
   xmlns:cc="http://creativecommons.org/ns#"
   xmlns:rdf="http://www.w3.org/1999/02/22-rdf-syntax-ns#"
   xmlns:svg="http://www.w3.org/2000/svg"
   xmlns="http://www.w3.org/2000/svg"
   xmlns:sodipodi="http://sodipodi.sourceforge.net/DTD/sodipodi-0.dtd"
   xmlns:inkscape="http://www.inkscape.org/namespaces/inkscape"
   version="1.1"
   id="Layer_1"
   x="0px"
   y="0px"
   width="500"
   height="500"
   viewBox="0 0 500 500"
   enable-background="new 0 0 480 480"
   xml:space="preserve"
   inkscape:version="0.91 r13725"
   sodipodi:docname="555.svg"><metadata
     id="metadata136"><rdf:RDF><cc:Work
         rdf:about=""><dc:format>image/svg+xml</dc:format><dc:type
           rdf:resource="http://purl.org/dc/dcmitype/StillImage" /><dc:title></dc:title></cc:Work></rdf:RDF></metadata><defs
     id="defs134" /><sodipodi:namedview
     pagecolor="#ffffff"
     bordercolor="#666666"
     borderopacity="1"
     objecttolerance="10"
     gridtolerance="10"
     guidetolerance="10"
     inkscape:pageopacity="0"
     inkscape:pageshadow="2"
     inkscape:window-width="2560"
     inkscape:window-height="1413"
     id="namedview132"
     showgrid="false"
     inkscape:zoom="0.49166667"
     inkscape:cx="-434.23729"
     inkscape:cy="240"
     inkscape:window-x="0"
     inkscape:window-y="27"
     inkscape:window-maximized="0"
     inkscape:current-layer="Layer_1" /><rect
     x="124.81499"
     y="219.71266"
     width="60.861931"
     height="60.864246"
     id="rect100"
     style="fill:#000000" /><rect
     x="124.81499"
     y="316.01312"
     width="60.861931"
     height="60.860775"
     id="rect104"
     style="fill:#000000" /><rect
     x="219.64548"
     y="219.71266"
     width="60.860775"
     height="60.861931"
     id="rect106"
     style="fill:#000000" /><rect
     x="314.16785"
     y="219.71266"
     width="60.863091"
     height="60.864246"
     id="rect108"
     style="fill:#000000" /><rect
     x="219.64548"
     y="316.0108"
     width="60.860775"
     height="60.863091"
     id="rect110"
     style="fill:#000000" /><rect
     x="314.16785"
     y="316.01312"
     width="60.863091"
     height="60.860775"
     id="rect112"
     style="fill:#000000" /><rect
     x="124.9679"
     y="412.3147"
     width="60.861931"
     height="60.860775"
     id="rect124"
     style="fill:#000000" /><rect
     x="219.79839"
     y="412.31238"
     width="60.861931"
     height="60.863091"
     id="rect126"
     style="fill:#000000" /><rect
     x="314.31961"
     y="412.3147"
     width="60.865406"
     height="60.860775"
     id="rect128"
     style="fill:#000000" />
     
     <path d="M 
        0 100 q 
        40 -40 80 0 q 
        40 40 80 0 q 
        40 -40 80 0 q
        40 40 80 0 q 
        40 -40 80 0 q 
        40 40 80 0 q 
        40 -40 80 0 l
         0 70 l 
        -880 0 z" 
           fill="rgb(0, 0, 0)"/>

	     <path d="M 
        0 150 q 
        40 -40 80 0 q 
        40 40 80 0 q 
        40 -40 80 0 q
        40 40 80 0 q 
        40 -40 80 0 q 
        40 40 80 0 q 
        40 -40 80 0 l
         0 20 l 
        -880 0 z" 
           fill="rgb(255, 255, 255)"/> 
	 
	 
	 
	 </svg>