<svg   xmlns="http://www.w3.org/2000/svg"   width="500"   height="500">
<rect     x="20"     y="20"      width="47.9166666666667"     height="47.9166666666667"  style="fill:FFFFFF" />
<rect     x="20"     y="77.5"      width="47.9166666666667"     height="47.9166666666667"  style="fill:FFFFFF" />
<rect     x="20"     y="135"      width="47.9166666666667"     height="47.9166666666667"  style="fill:FFFFFF" />
<rect     x="20"     y="192.5"      width="47.9166666666667"     height="47.9166666666667"  style="fill:FFFFFF" />
<rect     x="20"     y="250"      width="47.9166666666667"     height="47.9166666666667"  style="fill:FFFFFF" />
<rect     x="20"     y="307.5"      width="47.9166666666667"     height="47.9166666666667"  style="fill:FFFFFF" />
<rect     x="20"     y="365"      width="47.9166666666667"     height="47.9166666666667"  style="fill:FFFFFF" />
<rect     x="20"     y="422.5"      width="47.9166666666667"     height="47.9166666666667"  style="fill:FFFFFF" />
<rect     x="77.5"     y="20"      width="47.9166666666667"     height="47.9166666666667"  style="fill:FFFFFF" />
<rect     x="77.5"     y="77.5"      width="47.9166666666667"     height="47.9166666666667"  style="fill:FFFFFF" />
<rect     x="77.5"     y="135"      width="47.9166666666667"     height="47.9166666666667"  style="fill:FFFFFF" />
<rect     x="77.5"     y="192.5"      width="47.9166666666667"     height="47.9166666666667"  style="fill:FFFFFF" />
<rect     x="77.5"     y="250"      width="47.9166666666667"     height="47.9166666666667"  style="fill:FFFFFF" />
<rect     x="77.5"     y="307.5"      width="47.9166666666667"     height="47.9166666666667"  style="fill:FFFFFF" />
<rect     x="77.5"     y="365"      width="47.9166666666667"     height="47.9166666666667"  style="fill:FFFFFF" />
<rect     x="77.5"     y="422.5"      width="47.9166666666667"     height="47.9166666666667"  style="fill:FFFFFF" />
<rect     x="135"     y="20"      width="47.9166666666667"     height="47.9166666666667"  style="fill:FFFFFF" />
<rect     x="135"     y="77.5"      width="47.9166666666667"     height="47.9166666666667"  style="fill:FFFFFF" />
<rect     x="135"     y="135"      width="47.9166666666667"     height="47.9166666666667"  style="fill:FFFFFF" />
<rect     x="135"     y="192.5"      width="47.9166666666667"     height="47.9166666666667"  style="fill:FFFFFF" />
<rect     x="135"     y="250"      width="47.9166666666667"     height="47.9166666666667"  style="fill:FFFFFF" />
<rect     x="135"     y="307.5"      width="47.9166666666667"     height="47.9166666666667"  style="fill:FFFFFF" />
<rect     x="135"     y="365"      width="47.9166666666667"     height="47.9166666666667"  style="fill:FFFFFF" />
<rect     x="135"     y="422.5"      width="47.9166666666667"     height="47.9166666666667"  style="fill:FFFFFF" />
<rect     x="192.5"     y="20"      width="47.9166666666667"     height="47.9166666666667"  style="fill:FFFFFF" />
<rect     x="192.5"     y="77.5"      width="47.9166666666667"     height="47.9166666666667"  style="fill:FFFFFF" />
<rect     x="192.5"     y="135"      width="47.9166666666667"     height="47.9166666666667"  style="fill:FFFFFF" />
<rect     x="192.5"     y="192.5"      width="47.9166666666667"     height="47.9166666666667"  style="fill:FFFFFF" />
<rect     x="192.5"     y="250"      width="47.9166666666667"     height="47.9166666666667"  style="fill:FFFFFF" />
<rect     x="192.5"     y="307.5"      width="47.9166666666667"     height="47.9166666666667"  style="fill:FFFFFF" />
<rect     x="192.5"     y="365"      width="47.9166666666667"     height="47.9166666666667"  style="fill:FFFFFF" />
<rect     x="192.5"     y="422.5"      width="47.9166666666667"     height="47.9166666666667"  style="fill:FFFFFF" />
<rect     x="250"     y="20"      width="47.9166666666667"     height="47.9166666666667"  style="fill:FFFFFF" />
<rect     x="250"     y="77.5"      width="47.9166666666667"     height="47.9166666666667"  style="fill:FFFFFF" />
<rect     x="250"     y="135"      width="47.9166666666667"     height="47.9166666666667"  style="fill:FFFFFF" />
<rect     x="250"     y="192.5"      width="47.9166666666667"     height="47.9166666666667"  style="fill:FFFFFF" />
<rect     x="250"     y="250"      width="47.9166666666667"     height="47.9166666666667"  style="fill:FFFFFF" />
<rect     x="250"     y="307.5"      width="47.9166666666667"     height="47.9166666666667"  style="fill:FFFFFF" />
<rect     x="250"     y="365"      width="47.9166666666667"     height="47.9166666666667"  style="fill:FFFFFF" />
<rect     x="250"     y="422.5"      width="47.9166666666667"     height="47.9166666666667"  style="fill:FFFFFF" />
<rect     x="307.5"     y="20"      width="47.9166666666667"     height="47.9166666666667"  style="fill:FFFFFF" />
<rect     x="307.5"     y="77.5"      width="47.9166666666667"     height="47.9166666666667"  style="fill:FFFFFF" />
<rect     x="307.5"     y="135"      width="47.9166666666667"     height="47.9166666666667"  style="fill:FFFFFF" />
<rect     x="307.5"     y="192.5"      width="47.9166666666667"     height="47.9166666666667"  style="fill:FFFFFF" />
<rect     x="307.5"     y="250"      width="47.9166666666667"     height="47.9166666666667"  style="fill:FFFFFF" />
<rect     x="307.5"     y="307.5"      width="47.9166666666667"     height="47.9166666666667"  style="fill:FFFFFF" />
<rect     x="307.5"     y="365"      width="47.9166666666667"     height="47.9166666666667"  style="fill:FFFFFF" />
<rect     x="307.5"     y="422.5"      width="47.9166666666667"     height="47.9166666666667"  style="fill:FFFFFF" />
<rect     x="365"     y="20"      width="47.9166666666667"     height="47.9166666666667"  style="fill:FFFFFF" />
<rect     x="365"     y="77.5"      width="47.9166666666667"     height="47.9166666666667"  style="fill:FFFFFF" />
<rect     x="365"     y="135"      width="47.9166666666667"     height="47.9166666666667"  style="fill:FFFFFF" />
<rect     x="365"     y="192.5"      width="47.9166666666667"     height="47.9166666666667"  style="fill:FFFFFF" />
<rect     x="365"     y="250"      width="47.9166666666667"     height="47.9166666666667"  style="fill:FFFFFF" />
<rect     x="365"     y="307.5"      width="47.9166666666667"     height="47.9166666666667"  style="fill:FFFFFF" />
<rect     x="365"     y="365"      width="47.9166666666667"     height="47.9166666666667"  style="fill:FFFFFF" />
<rect     x="365"     y="422.5"      width="47.9166666666667"     height="47.9166666666667"  style="fill:FFFFFF" />
<rect     x="422.5"     y="20"      width="47.9166666666667"     height="47.9166666666667"  style="fill:FFFFFF" />
<rect     x="422.5"     y="77.5"      width="47.9166666666667"     height="47.9166666666667"  style="fill:FFFFFF" />
<rect     x="422.5"     y="135"      width="47.9166666666667"     height="47.9166666666667"  style="fill:FFFFFF" />
<rect     x="422.5"     y="192.5"      width="47.9166666666667"     height="47.9166666666667"  style="fill:FFFFFF" />
<rect     x="422.5"     y="250"      width="47.9166666666667"     height="47.9166666666667"  style="fill:FFFFFF" />
<rect     x="422.5"     y="307.5"      width="47.9166666666667"     height="47.9166666666667"  style="fill:FFFFFF" />
<rect     x="422.5"     y="365"      width="47.9166666666667"     height="47.9166666666667"  style="fill:FFFFFF" />
<rect     x="422.5"     y="422.5"      width="47.9166666666667"     height="47.9166666666667"  style="fill:FFFFFF" />

		 
	 </svg>