<svg   xmlns="http://www.w3.org/2000/svg"   width="500"   height="500">
<rect     x="17.8571428571429"     y="17.8571428571429"      width="35.7142857142857"     height="35.7142857142857" style="fill:FFFFFF" />
<rect     x="71.4285714285714"     y="17.8571428571429"      width="35.7142857142857"     height="35.7142857142857" style="fill:FFFFFF" />
<rect     x="125"     y="17.8571428571429"      width="35.7142857142857"     height="35.7142857142857" style="fill:FFFFFF" />
<rect     x="178.571428571429"     y="17.8571428571429"      width="35.7142857142857"     height="35.7142857142857" style="fill:FFFFFF" />
<rect     x="232.142857142857"     y="17.8571428571429"      width="35.7142857142857"     height="35.7142857142857" style="fill:FFFFFF" />
<rect     x="285.714285714286"     y="17.8571428571429"      width="35.7142857142857"     height="35.7142857142857" style="fill:FFFFFF" />
<rect     x="339.285714285714"     y="17.8571428571429"      width="35.7142857142857"     height="35.7142857142857" style="fill:FFFFFF" />
<rect     x="392.857142857143"     y="17.8571428571429"      width="35.7142857142857"     height="35.7142857142857" style="fill:FFFFFF" />
<rect     x="446.428571428571"     y="17.8571428571429"      width="35.7142857142857"     height="35.7142857142857" style="fill:FFFFFF" />
<rect     x="17.8571428571429"     y="71.4285714285714"      width="35.7142857142857"     height="35.7142857142857" style="fill:FFFFFF" />
<rect     x="71.4285714285714"     y="71.4285714285714"      width="35.7142857142857"     height="35.7142857142857" style="fill:FFFFFF" />
<rect     x="125"     y="71.4285714285714"      width="35.7142857142857"     height="35.7142857142857" style="fill:FFFFFF" />
<rect     x="178.571428571429"     y="71.4285714285714"      width="35.7142857142857"     height="35.7142857142857" style="fill:FFFFFF" />
<rect     x="232.142857142857"     y="71.4285714285714"      width="35.7142857142857"     height="35.7142857142857" style="fill:FFFFFF" />
<rect     x="285.714285714286"     y="71.4285714285714"      width="35.7142857142857"     height="35.7142857142857" style="fill:FFFFFF" />
<rect     x="339.285714285714"     y="71.4285714285714"      width="35.7142857142857"     height="35.7142857142857" style="fill:FFFFFF" />
<rect     x="392.857142857143"     y="71.4285714285714"      width="35.7142857142857"     height="35.7142857142857" style="fill:FFFFFF" />
<rect     x="446.428571428571"     y="71.4285714285714"      width="35.7142857142857"     height="35.7142857142857" style="fill:FFFFFF" />
<rect     x="17.8571428571429"     y="125"      width="35.7142857142857"     height="35.7142857142857" style="fill:FFFFFF" />
<rect     x="71.4285714285714"     y="125"      width="35.7142857142857"     height="35.7142857142857" style="fill:FFFFFF" />
<rect     x="125"     y="125"      width="35.7142857142857"     height="35.7142857142857" style="fill:FFFFFF" />
<rect     x="178.571428571429"     y="125"      width="35.7142857142857"     height="35.7142857142857" style="fill:FFFFFF" />
<rect     x="232.142857142857"     y="125"      width="35.7142857142857"     height="35.7142857142857" style="fill:FFFFFF" />
<rect     x="285.714285714286"     y="125"      width="35.7142857142857"     height="35.7142857142857" style="fill:FFFFFF" />
<rect     x="339.285714285714"     y="125"      width="35.7142857142857"     height="35.7142857142857" style="fill:FFFFFF" />
<rect     x="392.857142857143"     y="125"      width="35.7142857142857"     height="35.7142857142857" style="fill:FFFFFF" />
<rect     x="446.428571428571"     y="125"      width="35.7142857142857"     height="35.7142857142857" style="fill:FFFFFF" />
<rect     x="17.8571428571429"     y="178.571428571429"      width="35.7142857142857"     height="35.7142857142857" style="fill:FFFFFF" />
<rect     x="71.4285714285714"     y="178.571428571429"      width="35.7142857142857"     height="35.7142857142857" style="fill:FFFFFF" />
<rect     x="125"     y="178.571428571429"      width="35.7142857142857"     height="35.7142857142857" style="fill:FFFFFF" />
<rect     x="178.571428571429"     y="178.571428571429"      width="35.7142857142857"     height="35.7142857142857" style="fill:FFFFFF" />
<rect     x="232.142857142857"     y="178.571428571429"      width="35.7142857142857"     height="35.7142857142857" style="fill:FFFFFF" />
<rect     x="285.714285714286"     y="178.571428571429"      width="35.7142857142857"     height="35.7142857142857" style="fill:FFFFFF" />
<rect     x="339.285714285714"     y="178.571428571429"      width="35.7142857142857"     height="35.7142857142857" style="fill:FFFFFF" />
<rect     x="392.857142857143"     y="178.571428571429"      width="35.7142857142857"     height="35.7142857142857" style="fill:FFFFFF" />
<rect     x="446.428571428571"     y="178.571428571429"      width="35.7142857142857"     height="35.7142857142857" style="fill:FFFFFF" />
<rect     x="17.8571428571429"     y="232.142857142857"      width="35.7142857142857"     height="35.7142857142857" style="fill:FFFFFF" />
<rect     x="71.4285714285714"     y="232.142857142857"      width="35.7142857142857"     height="35.7142857142857" style="fill:FFFFFF" />
<rect     x="125"     y="232.142857142857"      width="35.7142857142857"     height="35.7142857142857" style="fill:FFFFFF" />
<rect     x="178.571428571429"     y="232.142857142857"      width="35.7142857142857"     height="35.7142857142857" style="fill:FFFFFF" />
<rect     x="232.142857142857"     y="232.142857142857"      width="35.7142857142857"     height="35.7142857142857" style="fill:FFFFFF" />
<rect     x="285.714285714286"     y="232.142857142857"      width="35.7142857142857"     height="35.7142857142857" style="fill:FFFFFF" />
<rect     x="339.285714285714"     y="232.142857142857"      width="35.7142857142857"     height="35.7142857142857" style="fill:FFFFFF" />
<rect     x="392.857142857143"     y="232.142857142857"      width="35.7142857142857"     height="35.7142857142857" style="fill:FFFFFF" />
<rect     x="446.428571428571"     y="232.142857142857"      width="35.7142857142857"     height="35.7142857142857" style="fill:FFFFFF" />
<rect     x="17.8571428571429"     y="285.714285714286"      width="35.7142857142857"     height="35.7142857142857" style="fill:FFFFFF" />
<rect     x="71.4285714285714"     y="285.714285714286"      width="35.7142857142857"     height="35.7142857142857" style="fill:FFFFFF" />
<rect     x="125"     y="285.714285714286"      width="35.7142857142857"     height="35.7142857142857" style="fill:FFFFFF" />
<rect     x="178.571428571429"     y="285.714285714286"      width="35.7142857142857"     height="35.7142857142857" style="fill:FFFFFF" />
<rect     x="232.142857142857"     y="285.714285714286"      width="35.7142857142857"     height="35.7142857142857" style="fill:FFFFFF" />
<rect     x="285.714285714286"     y="285.714285714286"      width="35.7142857142857"     height="35.7142857142857" style="fill:FFFFFF" />
<rect     x="339.285714285714"     y="285.714285714286"      width="35.7142857142857"     height="35.7142857142857" style="fill:FFFFFF" />
<rect     x="392.857142857143"     y="285.714285714286"      width="35.7142857142857"     height="35.7142857142857" style="fill:FFFFFF" />
<rect     x="446.428571428571"     y="285.714285714286"      width="35.7142857142857"     height="35.7142857142857" style="fill:FFFFFF" />
<rect     x="17.8571428571429"     y="339.285714285714"      width="35.7142857142857"     height="35.7142857142857" style="fill:FFFFFF" />
<rect     x="71.4285714285714"     y="339.285714285714"      width="35.7142857142857"     height="35.7142857142857" style="fill:FFFFFF" />
<rect     x="125"     y="339.285714285714"      width="35.7142857142857"     height="35.7142857142857" style="fill:FFFFFF" />
<rect     x="178.571428571429"     y="339.285714285714"      width="35.7142857142857"     height="35.7142857142857" style="fill:FFFFFF" />
<rect     x="232.142857142857"     y="339.285714285714"      width="35.7142857142857"     height="35.7142857142857" style="fill:FFFFFF" />
<rect     x="285.714285714286"     y="339.285714285714"      width="35.7142857142857"     height="35.7142857142857" style="fill:FFFFFF" />
<rect     x="339.285714285714"     y="339.285714285714"      width="35.7142857142857"     height="35.7142857142857" style="fill:FFFFFF" />
<rect     x="392.857142857143"     y="339.285714285714"      width="35.7142857142857"     height="35.7142857142857" style="fill:FFFFFF" />
<rect     x="446.428571428571"     y="339.285714285714"      width="35.7142857142857"     height="35.7142857142857" style="fill:FFFFFF" />
<rect     x="17.8571428571429"     y="392.857142857143"      width="35.7142857142857"     height="35.7142857142857" style="fill:FFFFFF" />
<rect     x="71.4285714285714"     y="392.857142857143"      width="35.7142857142857"     height="35.7142857142857" style="fill:FFFFFF" />
<rect     x="125"     y="392.857142857143"      width="35.7142857142857"     height="35.7142857142857" style="fill:FFFFFF" />
<rect     x="178.571428571429"     y="392.857142857143"      width="35.7142857142857"     height="35.7142857142857" style="fill:FFFFFF" />
<rect     x="232.142857142857"     y="392.857142857143"      width="35.7142857142857"     height="35.7142857142857" style="fill:FFFFFF" />
<rect     x="285.714285714286"     y="392.857142857143"      width="35.7142857142857"     height="35.7142857142857" style="fill:FFFFFF" />
<rect     x="339.285714285714"     y="392.857142857143"      width="35.7142857142857"     height="35.7142857142857" style="fill:FFFFFF" />
<rect     x="392.857142857143"     y="392.857142857143"      width="35.7142857142857"     height="35.7142857142857" style="fill:FFFFFF" />
<rect     x="446.428571428571"     y="392.857142857143"      width="35.7142857142857"     height="35.7142857142857" style="fill:FFFFFF" />
<rect     x="17.8571428571429"     y="446.428571428571"      width="35.7142857142857"     height="35.7142857142857" style="fill:FFFFFF" />
<rect     x="71.4285714285714"     y="446.428571428571"      width="35.7142857142857"     height="35.7142857142857" style="fill:FFFFFF" />
<rect     x="125"     y="446.428571428571"      width="35.7142857142857"     height="35.7142857142857" style="fill:FFFFFF" />
<rect     x="178.571428571429"     y="446.428571428571"      width="35.7142857142857"     height="35.7142857142857" style="fill:FFFFFF" />
<rect     x="232.142857142857"     y="446.428571428571"      width="35.7142857142857"     height="35.7142857142857" style="fill:FFFFFF" />
<rect     x="285.714285714286"     y="446.428571428571"      width="35.7142857142857"     height="35.7142857142857" style="fill:FFFFFF" />
<rect     x="339.285714285714"     y="446.428571428571"      width="35.7142857142857"     height="35.7142857142857" style="fill:FFFFFF" />
<rect     x="392.857142857143"     y="446.428571428571"      width="35.7142857142857"     height="35.7142857142857" style="fill:FFFFFF" />
<rect     x="446.428571428571"     y="446.428571428571"      width="35.7142857142857"     height="35.7142857142857" style="fill:FFFFFF" />
</svg>
