<?xml version="1.0" encoding="utf-8"?>
<!-- Generator: Adobe Illustrator 16.0.0, SVG Export Plug-In . SVG Version: 6.00 Build 0)  -->
<!DOCTYPE svg PUBLIC "-//W3C//DTD SVG 1.1//EN" "http://www.w3.org/Graphics/SVG/1.1/DTD/svg11.dtd">
<svg version="1.1" id="Layer_1" xmlns="http://www.w3.org/2000/svg" xmlns:xlink="http://www.w3.org/1999/xlink" x="0px" y="0px"
	 width="500px" height="500px" viewBox="0 0 500 500" enable-background="new 0 0 500 500" xml:space="preserve">

	 
<rect
     x="29"
     y="29"
     width="145"
     height="174"
     id="rect18"
     style="fill:#000000" />
	<rect
     x="220"
     y="29"
     width="116"
     height="174"
     id="rect20"
     style="fill:#000000" />
	<rect
     x="383"
     y="29"
     width="87"
     height="174"
     id="rect22"
     style="fill:#000000" />
	<rect
     x="29"
     y="249"
     width="145"
     height="116"
     id="rect24"
     style="fill:#000000" />
	<rect
     x="220"
     y="249"
     width="116"
     height="116"
     id="rect26"
     style="fill:#000000" />
	<rect
     x="383"
     y="249"
     width="87"
     height="116"
     id="rect28"
     style="fill:#000000" />
	<rect
     x="29"
     y="412"
     width="145"
     height="58"
     id="rect30"
     style="fill:#000000" />
	<rect
     x="220"
     y="412"
     width="116"
     height="58"
     id="rect32"
     style="fill:#000000" />
	<rect
     x="383"
     y="412"
     width="87"
     height="58"
     id="rect34"
     style="fill:#000000" />
<path fill="#FFFFFF" stroke="#000000" stroke-width="10"  d="M406.334,241.663C411.263,165.005,480.269,51.5,347.601,51.5c-111.138,0-118.596,96.192-118.596,190.163
	c0,84.969,4.044,186.586,106.526,190.163C478.403,436.813,411.812,326.852,406.334,241.663z"/>
	 
</svg>