<?xml version="1.0" encoding="UTF-8"?>
<!DOCTYPE svg PUBLIC "-//W3C//DTD SVG 1.1//EN" "http://www.w3.org/Graphics/SVG/1.1/DTD/svg11.dtd">
<!-- Creator: CorelDRAW 2019 (64-Bit) -->
<svg xmlns="http://www.w3.org/2000/svg" xml:space="preserve" width="50.0793mm" height="49.9355mm" version="1.1" style="shape-rendering:geometricPrecision; text-rendering:geometricPrecision; image-rendering:optimizeQuality; fill-rule:evenodd; clip-rule:evenodd"
viewBox="0 0 2296.61 2290.01"
 xmlns:xlink="http://www.w3.org/1999/xlink"
 xmlns:xodm="http://www.corel.com/coreldraw/odm/2003">
 <defs>
  <style type="text/css">
   <![CDATA[
    .fil0 {fill:black}
   ]]>
  </style>
 </defs>
 <g id="Слой_x0020_1">
  <metadata id="CorelCorpID_0Corel-Layer"/>
  <path class="fil0" d="M2240.35 929.96c-84.69,-106.97 -235.46,-120.79 -336.11,-30.78l-50.72 45.34 0 -288.13c0,-286.64 -219.4,-519.83 -489.08,-519.83 -269.69,0 -489.08,233.19 -489.08,519.83l0 1080.38 978.16 0 0 -81.88 381.95 -392.84c1.26,-1.29 2.47,-2.65 3.6,-4.07 76.24,-94.71 76.75,-232.66 1.28,-328.03l0 0zm-1364.98 925.35l0 241.83c0,32.73 24.97,59.26 55.76,59.26l866.64 0c30.79,0 55.76,-26.53 55.76,-59.26l0 -241.83 -978.16 0z"/>
  <rect class="fil0" width="602.63" height="602.63"/>
  <rect class="fil0" x="3.01" y="843.69" width="602.63" height="602.63"/>
  <rect class="fil0" x="4.52" y="1687.38" width="602.63" height="602.63"/>
 </g>
</svg>
