<?xml version="1.0" encoding="utf-8"?>
<!-- Generator: Adobe Illustrator 16.0.0, SVG Export Plug-In . SVG Version: 6.00 Build 0)  -->
<!DOCTYPE svg PUBLIC "-//W3C//DTD SVG 1.1//EN" "http://www.w3.org/Graphics/SVG/1.1/DTD/svg11.dtd">
<svg version="1.1" id="Layer_1" xmlns="http://www.w3.org/2000/svg" xmlns:xlink="http://www.w3.org/1999/xlink" x="0px" y="0px"
	 width="500px" height="500px" viewBox="0 0 500 500" enable-background="new 0 0 500 500" xml:space="preserve">

    
<path fill-rule="evenodd" clip-rule="evenodd" fill="#000000" d="M250.011,71.163c20.532,35.558,40.61,70.329,60.917,105.497
        c-40.682,0-80.999,0-121.824,0C209.319,141.645,229.429,106.812,250.011,71.163z"/>
<path fill-rule="evenodd" clip-rule="evenodd" fill="#000000" d="M98.746,333.155c20.443,35.413,40.466,70.099,60.748,105.233
        c-40.658,0-80.703,0-121.493,0C58.276,403.264,78.327,368.527,98.746,333.155z"/>
<path fill-rule="evenodd" clip-rule="evenodd" fill="#000000" d="M401.275,333.155c20.408,35.349,40.43,70.036,60.725,105.19
        c-40.625,0-80.668,0-121.439,0C360.777,403.318,380.828,368.58,401.275,333.155z"/>
<path fill-rule="evenodd" clip-rule="evenodd" fill="#000000" d="M189.235,438.43c20.374-35.287,40.388-69.953,60.733-105.188
        c20.383,35.302,40.432,70.026,60.732,105.188C270.016,438.43,229.987,438.43,189.235,438.43z"/>
<path fill-rule="evenodd" clip-rule="evenodd" fill="#000000" d="M189.222,193.807c40.762,0,80.747,0,121.481,0
        c-20.283,35.137-40.336,69.875-60.733,105.213C229.623,263.778,209.598,229.098,189.222,193.807z"/>
<path fill-rule="evenodd" clip-rule="evenodd" fill="#000000" d="M264.949,307.287c20.256-35.079,40.248-69.701,60.699-105.119
        c20.459,35.437,40.449,70.061,60.688,105.119C345.652,307.287,305.631,307.287,264.949,307.287z"/>
<path fill-rule="evenodd" clip-rule="evenodd" fill="#000000" d="M325.604,430.023c-20.439-35.398-40.402-69.979-60.631-105.014
        c40.615,0,80.635,0,121.252,0C366.035,359.98,346.07,394.566,325.604,430.023z"/>
<path fill-rule="evenodd" clip-rule="evenodd" fill="#000000" d="M235.007,307.329c-40.677,0-80.64,0-121.344,0
        c20.236-35.051,40.229-69.681,60.671-105.088C194.761,237.621,214.755,272.251,235.007,307.329z"/>
<path fill-rule="evenodd" clip-rule="evenodd" fill="#000000" d="M113.753,324.944c40.665,0,80.61,0,121.242,0
        c-20.21,35.009-40.162,69.573-60.61,104.995C154.035,394.697,134.05,360.09,113.753,324.944z"/>


<path fill-rule="evenodd" clip-rule="evenodd" fill="#FFFFFF" d="M298.473,332.997c0-2.802,0-5.242,0-8.212
	c-14.722,0-29.174,0.015-43.626-0.003c-19.157-0.023-38.316,0.072-57.472-0.166c-10.302-0.129-18.292-7.216-20.328-17.286
	c-1.853-9.163,3.034-19.079,12.012-22.986c3.381-1.472,7.402-2.037,11.135-2.051c40.813-0.139,81.629,0.009,122.443-0.161
	c9.123-0.038,15.375,4.223,21.629,10.393c25.26,24.919,50.955,49.397,76.488,74.041c3.596,3.471,6.904,7.313,10.838,10.345
	c6.215,4.787,8.258,10.58,8.043,18.449c-0.553,20.143-0.186,40.312-0.184,60.47c0,2.427,0,4.854,0,8.481
	c-9.523-9.161-17.688-17.688-26.564-25.398c-13.682-11.885-27.795-23.277-41.836-34.744c-8.523-6.962-18.785-9.397-29.422-9.31
	c-23.133,0.192-46.261,1.237-69.394,1.434c-28.321,0.242-56.652-0.366-84.968,0.079c-12.632,0.199-23.001-4.502-31.481-12.761
	c-29.835-29.058-59.207-58.59-88.763-87.933c-6.604-6.557-8.228-14.462-5.22-22.947c2.912-8.216,9.268-12.885,18.003-13.75
	c6.879-0.682,12.596,2,17.604,6.694c19.688,18.456,39.46,36.825,59.202,55.224c3.777,3.521,7.468,7.144,11.396,10.486
	c1.268,1.08,3.166,2.005,4.778,2.009c41.318,0.085,82.636,0.04,123.953,0.002C297.211,333.396,297.681,333.186,298.473,332.997z"
        stroke="black" stroke-width="5" />

</svg>
