<?xml version="1.0" encoding="utf-8"?>
<!-- Generator: Adobe Illustrator 16.0.0, SVG Export Plug-In . SVG Version: 6.00 Build 0)  -->
<!DOCTYPE svg PUBLIC "-//W3C//DTD SVG 1.1//EN" "http://www.w3.org/Graphics/SVG/1.1/DTD/svg11.dtd">
<svg version="1.1" id="Layer_1" xmlns="http://www.w3.org/2000/svg" xmlns:xlink="http://www.w3.org/1999/xlink" x="0px" y="0px"
	 width="500px" height="500px" viewBox="0 0 500 500" enable-background="new 0 0 500 500" xml:space="preserve">

	 
<polygon fill="#000000" points="192,30   308 ,30   308,155  250,218  192,146 "/>
<polygon fill="#000000" points=" 30,192   30 ,308  155,308  218,250  146,192 "/>
<polygon fill="#000000" points="192,470  308 ,470  308,345  250,282  192,354 "/>
<polygon fill="#000000" points="470,192  470 ,308  345,308  282,250  354,192 "/>
	 

<rect     x="30"     y="30"     width="116"     height="116"     id="rect18"     style="fill:#000000" />
<rect     x="354"     y="30"     width="116"     height="116"     id="rect22"     style="fill:#000000" />
<rect     x="30"     y="354.45139"     width="116.05709"     height="116.05709"     id="rect30"     style="fill:#000000" />
<rect     x="354.8866"     y="354.45139"     width="116.05709"     height="116.05709"     id="rect34"     style="fill:#000000" />
	 
	 
</svg>