<?xml version="1.0" encoding="UTF-8" standalone="no"?>
<!-- Generator: Adobe Illustrator 16.0.0, SVG Export Plug-In . SVG Version: 6.00 Build 0)  -->

<svg
   xmlns:dc="http://purl.org/dc/elements/1.1/"
   xmlns:cc="http://creativecommons.org/ns#"
   xmlns:rdf="http://www.w3.org/1999/02/22-rdf-syntax-ns#"
   xmlns:svg="http://www.w3.org/2000/svg"
   xmlns="http://www.w3.org/2000/svg"
   xmlns:sodipodi="http://sodipodi.sourceforge.net/DTD/sodipodi-0.dtd"
   xmlns:inkscape="http://www.inkscape.org/namespaces/inkscape"
   version="1.1"
   id="Layer_1"
   x="0px"
   y="0px"
   width="500"
   height="500"
   viewBox="0 0 500 500"
   enable-background="new 0 0 480 480"
   xml:space="preserve"
   inkscape:version="0.91 r13725"
   sodipodi:docname="777.svg"><metadata
     id="metadata320"><rdf:RDF><cc:Work
         rdf:about=""><dc:format>image/svg+xml</dc:format><dc:type
           rdf:resource="http://purl.org/dc/dcmitype/StillImage" /><dc:title></dc:title></cc:Work></rdf:RDF></metadata><defs
     id="defs318" /><sodipodi:namedview
     pagecolor="#ffffff"
     bordercolor="#666666"
     borderopacity="1"
     objecttolerance="10"
     gridtolerance="10"
     guidetolerance="10"
     inkscape:pageopacity="0"
     inkscape:pageshadow="2"
     inkscape:window-width="2560"
     inkscape:window-height="1413"
     id="namedview316"
     showgrid="false"
     inkscape:zoom="0.69532167"
     inkscape:cx="-318.54494"
     inkscape:cy="186.41221"
     inkscape:window-x="0"
     inkscape:window-y="27"
     inkscape:window-maximized="0"
     inkscape:current-layer="Layer_1" />	
     
	<path fill-rule="evenodd" clip-rule="evenodd" fill="orange" d="M250.011,71.163c20.532,35.558,40.61,70.329,60.917,105.497
		c-40.682,0-80.999,0-121.824,0C209.319,141.645,229.429,106.812,250.011,71.163z"/>
	<path fill-rule="evenodd" clip-rule="evenodd" fill="orange" d="M98.746,333.155c20.443,35.413,40.466,70.099,60.748,105.233
		c-40.658,0-80.703,0-121.493,0C58.276,403.264,78.327,368.527,98.746,333.155z"/>
	<path fill-rule="evenodd" clip-rule="evenodd" fill="orange" d="M401.275,333.155c20.408,35.349,40.43,70.036,60.725,105.19
		c-40.625,0-80.668,0-121.439,0C360.777,403.318,380.828,368.58,401.275,333.155z"/>
	<path fill-rule="evenodd" clip-rule="evenodd" fill="orange" d="M189.235,438.43c20.374-35.287,40.388-69.953,60.733-105.188
		c20.383,35.302,40.432,70.026,60.732,105.188C270.016,438.43,229.987,438.43,189.235,438.43z"/>
	<path fill-rule="evenodd" clip-rule="evenodd" fill="orange" d="M189.222,193.807c40.762,0,80.747,0,121.481,0
		c-20.283,35.137-40.336,69.875-60.733,105.213C229.623,263.778,209.598,229.098,189.222,193.807z"/>
	<path fill-rule="evenodd" clip-rule="evenodd" fill="orange" d="M264.949,307.287c20.256-35.079,40.248-69.701,60.699-105.119
		c20.459,35.437,40.449,70.061,60.688,105.119C345.652,307.287,305.631,307.287,264.949,307.287z"/>
	<path fill-rule="evenodd" clip-rule="evenodd" fill="orange" d="M325.604,430.023c-20.439-35.398-40.402-69.979-60.631-105.014
		c40.615,0,80.635,0,121.252,0C366.035,359.98,346.07,394.566,325.604,430.023z"/>
	<path fill-rule="evenodd" clip-rule="evenodd" fill="orange" d="M235.007,307.329c-40.677,0-80.64,0-121.344,0
		c20.236-35.051,40.229-69.681,60.671-105.088C194.761,237.621,214.755,272.251,235.007,307.329z"/>
	<path fill-rule="evenodd" clip-rule="evenodd" fill="orange" d="M113.753,324.944c40.665,0,80.61,0,121.242,0
		c-20.21,35.009-40.162,69.573-60.61,104.995C154.035,394.697,134.05,360.09,113.753,324.944z"/>
     
     </svg>